<?xml version="1.0" encoding="UTF-8"?>
<svg id="Livello_1" data-name="Livello 1" xmlns="http://www.w3.org/2000/svg" viewBox="0 0 1308.45 386.94">
  <defs>
    <style>
      .cls-1 {
        fill: #f0c318;
      }

      .cls-2 {
        fill: #3d3c82;
      }
    </style>
  </defs>
  <path class="cls-2" d="M608.74,41.67c-10.94-10.8-23.87-19.06-38.78-24.79-14.91-5.72-31.23-8.59-48.95-8.59l-83.5-.02c-2.48,0-4.21,2.47-3.36,4.8l67.89,185.79c.51,1.41,1.86,2.35,3.36,2.35h44.94c3.59.01,6.09-3.55,4.86-6.93l-13.38-36.79c-1.23-3.37,1.27-6.94,4.86-6.94h26.4c17.72,0,31.94-2.89,42.65-8.7,10.71-5.81,17.63-14.07,20.75-24.77,3.12-10.7,2.03-22.48-3.27-37.06-5.37-14.76-13.53-27.55-24.47-38.35ZM576.94,100.76c-3.82,4.98-11.45,6.61-22.89,6.61h-27.95c-1.5,0-2.85-.95-3.36-2.36l-18.04-48.74c-.85-2.33.88-4.8,3.36-4.8h25.35c11.44,0,20.89,2.5,28.33,7.49,7.44,4.98,12.81,12,16.1,21.04,3.22,8.86,2.92,15.78-.89,20.76Z"/>
  <path class="cls-2" d="M804.5,41.71c-10.94-10.8-23.87-19.06-38.78-24.79-14.91-5.72-31.23-8.59-48.95-8.59l-83.5-.02c-2.48,0-4.21,2.47-3.36,4.8l67.89,185.79c.51,1.41,1.86,2.35,3.36,2.35h44.94c3.59.01,6.09-3.55,4.86-6.93l-13.38-36.79c-1.23-3.37,1.27-6.94,4.86-6.94h26.4c17.72,0,31.94-2.89,42.65-8.71,10.71-5.81,17.63-14.07,20.75-24.77,3.12-10.7,2.03-22.48-3.27-37.06-5.37-14.76-13.53-27.55-24.47-38.35ZM772.7,100.81c-3.82,4.98-11.45,6.61-22.89,6.61h-27.95c-1.5,0-2.85-.95-3.36-2.36l-18.04-48.74c-.85-2.33.88-4.8,3.36-4.8h25.35c11.44,0,20.89,2.5,28.33,7.49,7.44,4.98,12.81,12,16.1,21.04,3.22,8.86,2.92,15.78-.89,20.76Z"/>
  <path class="cls-2" d="M304,8.26l-235.61-.86C13.46,7.4-8.13,45.63,13.41,104.83c21.26,58.41,70.51,96.18,125.44,96.18h235.61c54.9,0,76.66-37.77,55.4-96.18-21.55-59.2-70.97-96.57-125.86-96.57ZM356.74,156.45H124.15c-28.75,0-55.36-24.09-65.61-52.24-10.09-27.73-.74-52.24,27.58-52.24l232.59.86c28.29,0,55.49,23.65,65.58,51.38,10.25,28.15,1.16,52.24-27.55,52.24Z"/>
  <path class="cls-2" d="M1175.82,99.49c-6.69-18.45-15.74-34.13-27.08-47.14-.06-.06-.12-.15-.18-.21-.76-.85-1.52-1.7-2.31-2.52-12.52-13.49-26.84-23.8-43.01-30.88-7.23-3.16-14.65-5.59-22.25-7.36-9.36-2.16-19.03-3.25-28.93-3.25-5.11,0-9.91.27-14.44.88-11.43,1.43-21.03,4.65-28.87,9.73-10.91,7.05-17.78,17.35-20.58,30.82-2.8,13.49-.58,30.15,6.6,49.88l20.11,54.42c.85,2.33-.88,4.8-3.36,4.8l-77.55-.03c-1.5,0-2.85-.94-3.36-2.36l-53.27-145.79c-.51-1.41-1.86-2.36-3.36-2.36h-46.21c-2.48,0-4.21,2.47-3.36,4.8l67.91,186.01c.51,1.41,1.86,2.35,3.36,2.36l136.45.03h5.65l40,.03c3.59,0,6.09-3.56,4.86-6.94l-10.27-28.25c-1.23-3.37,1.27-6.94,4.86-6.94h63.22c2.17,0,4.12,1.36,4.86,3.4l12.84,35.32c.74,2.04,2.68,3.4,4.86,3.4l45.1.03c2.48,0,4.21-2.47,3.36-4.8l-35.64-97.09ZM1057.21,117.62c-1.5,0-2.85-.94-3.36-2.35l-7.75-20.43c-5.26-14.5-5.71-25.17-1.31-31.94,4.41-6.78,12.16-10.18,23.22-10.18s21,3.4,30.33,10.21c9.36,6.78,16.69,17.45,21.94,31.94l6.88,17.95c.85,2.33-.87,4.8-3.36,4.8h-66.6Z"/>
  <path class="cls-2" d="M1308.45,47.93v1.42c0,2.2-1.81,3.98-4.03,3.98h-128.59c-1.21,0-2.34-.54-3.11-1.46-.95-1.13-1.92-2.25-2.89-3.34-.88-.97-1.76-1.93-2.67-2.9-14.58-15.47-31.49-27.45-50.3-35.58-4.94-2.1-9.98-3.94-15.05-5.54h173.43c1.22,0,2.13.79,3.13,1.48,1.4.96,5.08,5.09,5.53,6.23h0c2.45,2.59.5,6.81-3.09,6.69-5.6-.18-11.13-.28-16.12.18-5.04.47-6.29,4.9-1.08,5.34,9.69.86,20.63.16,30.81.32.94.01,2.11.12,2.9.63,2.19,1.43,4.43,2.28,6.63,4.85.84.98,1.64,1.99,1.62,3.27-.02,1.16-.09,2.12-.15,2.63-.27,1.9-.98,2.93-3.79,2.87h-44.58c-2.88.43-3.55,4.97-1.52,4.97h48.9c2.23,0,4.03,1.78,4.03,3.98Z"/>
  <g>
    <path class="cls-1" d="M543.5,346.22h-20l6.31-39.89h-7.03l2.61-16.49h7.03l1.13-7.14c1.23-7.8,2.36-13.52,8.84-19.78,5.87-5.82,13.51-9.01,21.1-9.01,3.08,0,5.74.55,8.26,1.98l-2.73,17.25c-2.15-.99-4.1-1.87-6.74-1.87-5.17,0-7.41,3.08-8.42,9.45l-1.44,9.12h13.96l-2.61,16.49h-13.96l-6.31,39.89Z"/>
    <path class="cls-1" d="M584.16,346.22h-20l14.42-91.22h20l-14.42,91.22Z"/>
    <path class="cls-1" d="M659.01,346.22h-20l.99-6.26h-.22c-4.4,5.61-11.73,8.13-18.32,8.13-16.7,0-26.26-13.96-23.7-30.11,2.55-16.16,16.28-30,32.99-30,6.48,0,12.92,2.42,16.31,7.36l.87-5.5h20l-8.91,56.38ZM618.39,318.09c-1.13,7.14,2.73,12.64,10.86,12.64s13.73-5.49,14.86-12.64c1.09-6.92-2.71-12.75-10.84-12.75s-13.78,5.82-14.87,12.75Z"/>
    <path class="cls-1" d="M694.17,346.22h-20l6.31-39.89h-6.48l2.61-16.49h6.48l2.68-16.92h20l-2.68,16.92h11.32l-2.61,16.49h-11.32l-6.31,39.89Z"/>
    <path class="cls-1" d="M792.98,339.96h-.22c-4.4,5.61-11.73,8.13-18.32,8.13-16.7,0-26.26-13.96-23.7-30.11,2.55-16.16,16.28-30,32.99-30,6.48,0,12.92,2.42,16.31,7.36l6.38-40.33h20l-14.42,91.22h-20l.99-6.26ZM771.38,318.09c-1.13,7.14,2.73,12.64,10.86,12.64s13.73-5.49,14.86-12.64c1.09-6.92-2.71-12.75-10.84-12.75s-13.78,5.82-14.87,12.75Z"/>
    <path class="cls-1" d="M886.36,321.38h-42.09c-1.29,8.13,2.31,12.53,10.55,12.53,4.29,0,7.59-1.43,10.38-5.17h19.23c-5.29,13.3-18.88,19.34-31.74,19.34-18.68,0-30.97-10.55-27.9-30,2.97-18.79,17.62-30.11,35.97-30.11,19.56,0,28.97,12.09,25.93,31.32l-.33,2.09ZM869.61,309.84c-.14-5.39-4.53-8.9-9.91-8.9-5.82,0-11.15,3.08-13.28,8.9h23.19Z"/>
    <path class="cls-1" d="M911.56,346.22h-20l14.42-91.22h20l-14.42,91.22Z"/>
    <path class="cls-1" d="M944.75,346.22h-20l8.91-56.38h20l-8.91,56.38ZM958.29,268.19c-.97,6.15-6.83,11.21-12.98,11.21s-10.41-5.06-9.44-11.21,6.83-11.21,12.98-11.21,10.41,5.06,9.44,11.21Z"/>
    <path class="cls-1" d="M989.97,318.75l17.98-28.9h22.42l-38.36,56.38h-12.75l-20.65-56.38h22.42l8.95,28.9Z"/>
    <path class="cls-1" d="M1088.25,321.38h-42.09c-1.29,8.13,2.31,12.53,10.55,12.53,4.29,0,7.59-1.43,10.38-5.17h19.23c-5.29,13.3-18.88,19.34-31.74,19.34-18.68,0-30.97-10.55-27.9-30,2.97-18.79,17.62-30.11,35.97-30.11,19.56,0,28.97,12.09,25.93,31.32l-.33,2.09ZM1071.5,309.84c-.14-5.39-4.53-8.9-9.91-8.9-5.82,0-11.15,3.08-13.28,8.9h23.19Z"/>
    <path class="cls-1" d="M1120.9,299.07h.22c4.94-6.92,12.02-10,19.82-10h3.85l-3.04,19.23c-2.5-1.54-5.09-1.87-8.17-1.87-11.1,0-15.01,7.36-16.54,17.03l-3.6,22.75h-20l8.91-56.38h20l-1.46,9.23Z"/>
    <path class="cls-1" d="M1148.29,289.84h23.08l10.49,28.9,19.29-28.9h22.75l-58.53,84.51h-22.42l24.9-35.83-19.56-48.69Z"/>
  </g>
</svg>